<svg preserveAspectRatio="none" overflow="visible" style="display: block;" width="15" height="12" viewBox="0 0 15 12" fill="none" xmlns="http://www.w3.org/2000/svg">
<g id="Img">
<path id="Vector" d="M13.5884 6.27364C14.9126 4.94942 14.9126 2.80489 13.5884 1.48067C12.4165 0.308794 10.5696 0.15645 9.22198 1.11973L9.18448 1.14551C8.84698 1.38692 8.76963 1.85567 9.01104 2.19083C9.25245 2.52598 9.7212 2.60567 10.0564 2.36426L10.0939 2.33848C10.8462 1.80176 11.8751 1.88614 12.5267 2.54004C13.2649 3.27833 13.2649 4.47364 12.5267 5.21192L9.89698 7.84629C9.1587 8.58458 7.96338 8.58458 7.2251 7.84629C6.5712 7.19239 6.48682 6.16348 7.02354 5.41348L7.04932 5.37598C7.29073 5.03848 7.21104 4.56973 6.87588 4.33067C6.54073 4.09161 6.06963 4.16895 5.83057 4.50411L5.80479 4.54161C4.83917 5.88692 4.99151 7.73379 6.16338 8.90567C7.4876 10.2299 9.63213 10.2299 10.9564 8.90567L13.5884 6.27364ZM1.41026 5.7252C0.0860403 7.04942 0.0860403 9.19395 1.41026 10.5182C2.58213 11.69 4.42901 11.8424 5.77667 10.8791L5.81417 10.8533C6.15167 10.6119 6.22901 10.1432 5.9876 9.80801C5.7462 9.47286 5.27745 9.39317 4.94229 9.63458L4.90479 9.66036C4.15245 10.1971 3.12354 10.1127 2.47198 9.4588C1.7337 8.71817 1.7337 7.52286 2.47198 6.78458L5.10167 4.15254C5.83995 3.41426 7.03526 3.41426 7.77354 4.15254C8.42745 4.80645 8.51182 5.83536 7.9751 6.5877L7.94932 6.6252C7.70792 6.9627 7.7876 7.43145 8.12276 7.67051C8.45792 7.90958 8.92901 7.83223 9.16807 7.49708L9.19385 7.45958C10.1595 6.11192 10.0071 4.26504 8.83526 3.09317C7.51104 1.76895 5.36651 1.76895 4.04229 3.09317L1.41026 5.7252Z" fill="#475569"/>
</g>
</svg>
