<svg preserveAspectRatio="none" overflow="visible" style="display: block;" width="24.0004" height="24" viewBox="0 0 24.0004 24" fill="none" xmlns="http://www.w3.org/2000/svg">
<g id="Img">
<path id="Vector" d="M0 4.50008C0 2.84539 1.34531 1.50008 3 1.50008H21C22.6547 1.50008 24 2.84539 24 4.50008V19.5001C24 21.1548 22.6547 22.5001 21 22.5001H3C1.34531 22.5001 0 21.1548 0 19.5001V4.50008ZM15.1781 9.49227C14.9672 9.18289 14.6203 9.00008 14.25 9.00008C13.8797 9.00008 13.5281 9.18289 13.3219 9.49227L9.24375 15.4735L8.00156 13.922C7.78594 13.6548 7.4625 13.5001 7.125 13.5001C6.7875 13.5001 6.45938 13.6548 6.24844 13.922L3.24844 17.672C2.97656 18.0095 2.925 18.4735 3.1125 18.8626C3.3 19.2516 3.69375 19.5001 4.125 19.5001H8.625H10.125H19.875C20.2922 19.5001 20.6766 19.2704 20.8688 18.9001C21.0609 18.5298 21.0375 18.0845 20.8031 17.7423L15.1781 9.49227ZM5.25 9.00008C5.84674 9.00008 6.41903 8.76303 6.84099 8.34107C7.26295 7.91911 7.5 7.34682 7.5 6.75008C7.5 6.15334 7.26295 5.58105 6.84099 5.15909C6.41903 4.73713 5.84674 4.50008 5.25 4.50008C4.65326 4.50008 4.08097 4.73713 3.65901 5.15909C3.23705 5.58105 3 6.15334 3 6.75008C3 7.34682 3.23705 7.91911 3.65901 8.34107C4.08097 8.76303 4.65326 9.00008 5.25 9.00008Z" fill="#94A3B8"/>
</g>
</svg>
