<svg preserveAspectRatio="none" overflow="visible" style="display: block;" width="33.75" height="30" viewBox="0 0 33.75 30" fill="none" xmlns="http://www.w3.org/2000/svg">
<g id="Img">
<path id="Vector" d="M0.550781 5.07422C-0.181641 4.3418 -0.181641 3.1582 0.550781 2.42578C1.2832 1.69336 2.47266 1.69336 3.20508 2.42578L14.4551 13.6758C15.1875 14.4082 15.1875 15.5977 14.4551 16.3301L3.20508 27.5801C2.47266 28.3125 1.2832 28.3125 0.550781 27.5801C-0.181641 26.8477 -0.181641 25.6582 0.550781 24.9258L10.4707 15L0.550781 5.07422ZM15 24.375H31.875C32.9121 24.375 33.75 25.2129 33.75 26.25C33.75 27.2871 32.9121 28.125 31.875 28.125H15C13.9629 28.125 13.125 27.2871 13.125 26.25C13.125 25.2129 13.9629 24.375 15 24.375Z" fill="#CBD5E1"/>
</g>
</svg>
