<svg preserveAspectRatio="none" overflow="visible" style="display: block;" width="20" height="20" viewBox="0 0 20 20" fill="none" xmlns="http://www.w3.org/2000/svg">
<g id="SVG" clip-path="url(#clip0_0_6)">
<path id="Vector" d="M14.5429 1.74254C14.7734 1.20738 14.6015 0.582384 14.1289 0.238634C13.6562 -0.105116 13.0117 -0.0738655 12.5703 0.308947L2.57026 9.05894C2.17963 9.4027 2.03901 9.95347 2.2226 10.4379C2.4062 10.9222 2.87495 11.2504 3.39448 11.2504H7.74994L4.74604 18.2581C4.51557 18.7933 4.68744 19.4183 5.1601 19.7621C5.63276 20.1059 6.27729 20.0746 6.7187 19.6917L16.7187 10.9418C17.1093 10.598 17.25 10.0472 17.0663 9.56286C16.8827 9.07849 16.4179 8.75426 15.8945 8.75426H11.539L14.5429 1.74254Z" fill="#00C185"/>
</g>
<defs>
<clipPath id="clip0_0_6">
<rect width="20" height="20" fill="white"/>
</clipPath>
</defs>
</svg>
